<?xml version="1.0" standalone="no"?>
<!DOCTYPE svg PUBLIC "-//W3C//DTD SVG 20010904//EN"
 "http://www.w3.org/TR/2001/REC-SVG-20010904/DTD/svg10.dtd">
<svg version="1.0" xmlns="http://www.w3.org/2000/svg"
 width="164.000000pt" height="164.000000pt" viewBox="0 0 164.000000 164.000000"
 preserveAspectRatio="xMidYMid meet">
<metadata>
Created by potrace 1.14, written by Peter Selinger 2001-2017
</metadata>
<g transform="translate(0.000000,164.000000) scale(0.100000,-0.100000)"
fill="#000000" stroke="none">
<path d="M60 1555 c0 -2 56 -124 115 -250 178 -382 241 -542 432 -1102 35
-104 40 -113 63 -113 23 0 29 10 74 143 48 139 60 166 71 155 5 -5 -12 -54
-79 -230 l-26 -68 24 0 c26 0 23 -7 110 225 l26 70 187 0 188 0 16 -35 c10
-19 29 -78 44 -130 15 -52 30 -102 34 -110 6 -12 33 -16 120 -18 69 -2 111 1
111 7 0 6 -11 34 -24 63 -112 247 -136 302 -136 310 0 6 20 33 45 61 89 101
127 217 127 386 1 105 -14 185 -46 263 -19 44 -78 124 -120 161 -39 35 -163
97 -193 97 -28 0 -28 2 -3 68 l20 53 -37 -3 c-34 -3 -38 -7 -57 -53 -11 -27
-21 -52 -24 -55 -2 -3 -101 -5 -220 -5 l-217 0 1 -65 c1 -36 5 -126 9 -200 6
-125 9 -329 5 -410 -1 -33 -4 -30 -42 50 -95 202 -167 387 -238 615 l-38 120
-161 1 c-88 1 -161 0 -161 -1z m1037 -179 c-8 -17 -56 -144 -107 -283 -52
-139 -96 -250 -99 -248 -9 10 1 365 15 496 l6 56 66 9 c37 5 81 7 99 5 32 -3
32 -3 20 -35z m139 -58 c48 -57 96 -172 108 -261 17 -115 10 -297 -13 -360 -8
-21 -8 -21 -15 3 -4 14 -11 34 -16 45 -10 22 -133 365 -144 403 -4 12 -15 22
-25 22 -14 0 -25 -20 -46 -77 -62 -175 -99 -273 -136 -367 -21 -55 -39 -107
-40 -115 0 -10 -3 -8 -9 6 -7 16 4 56 46 165 30 79 91 240 136 358 44 118 82
218 85 223 7 11 38 -9 69 -45z m-106 -657 c44 -96 79 -179 76 -186 -8 -23 -79
-48 -135 -48 -78 0 -161 21 -161 41 0 16 132 373 136 369 1 -1 39 -80 84 -176z"/>
</g>
</svg>
